<?xml version="1.0"?>
<svg xmlns:rdf="http://www.w3.org/1999/02/22-rdf-syntax-ns#" xmlns="http://www.w3.org/2000/svg" xmlns:cc="http://creativecommons.org/ns#" xmlns:xlink="http://www.w3.org/1999/xlink" xmlns:dc="http://purl.org/dc/elements/1.1/" xmlns:svg="http://www.w3.org/2000/svg" id="svg2816" viewBox="0 0 190 150" version="1.1">
  <g id="layer1" transform="translate(0,-330)">
    <g id="g4021" transform="translate(-305.67 142.49)">
      <path id="path3866" d="m401.04 280.35c-5.9179-9.5368-9.086-19.171-3.544-27.516-3.0024-0.79172-8.8121-0.4439-16.972 19.657-3.3037-15.675 12.296-41.2 12.296-41.2s-23.442 5.5301-24.331 20.144c-15.882 12.923-4.4285 50.748-4.4285 50.748s8.2457-21.226 14.29-18.865l5.3554 15.048 10.886-7.1757" stroke="#000" stroke-width="1.1407" fill="#46d007"/>
      <path id="path3889" d="m429.51 295.76c-0.24048-2.7143 0.42507-5.5012 1.8661-7.8139 1.441-2.3128 3.6494-4.1383 6.192-5.1186 2.5426-0.98026 5.4048-1.1097 8.0255-0.36289 2.6206 0.7468 4.9848 2.3656 6.6286 4.5388 1.5321 2.0255 2.4168 4.4544 3.2809 6.8426 0.86411 2.3881 1.751 4.8166 3.2865 6.8395 1.8124 2.3876 4.5015 4.0939 7.4337 4.7168 2.9321 0.62291 6.0827 0.15719 8.7092-1.2874s4.707-3.856 5.7511-6.6658 1.0431-5.9947-0.003-8.8039" stroke="#000" stroke-width=".57034px" fill="none"/>
      <path id="path3846" style="color:#000000" d="m433.62 287.14c0 13.677-9.282 24.765-26.133 24.765s-30.511-11.087-30.511-24.765c0-13.677 13.66-24.765 30.511-24.765s26.133 11.087 26.133 24.765z" stroke="#030000" stroke-width="1.1407" fill="#46d007"/>
      <path id="path2826" style="color:#000000" d="m385.2 241.1c15.404 18.833 4.0793 35.148-10.81 46.699-21.891 16.984-43.83 8.8194-44.497-17.825-0.40513-16.191 0.0321-37.959 15.188-46.152 15.623-8.4457 61.491-41.886 40.119 17.277z" stroke="#030000" stroke-width="1.1407" fill="#46d007"/>
      <path id="path3761" style="color:#000000" d="m314.83 291.71c0 13.303-10.784 24.087-24.087 24.087s-24.088-10.784-24.088-24.087 10.784-24.088 24.088-24.088c13.303 0 24.087 10.784 24.087 24.088z" transform="matrix(.57034 0 0 .57034 172.03 92.85)" stroke="#030000" stroke-width="2" fill="#fff"/>
      <path id="path3761-4" style="color:#000000" d="m314.83 291.71c0 13.303-10.784 24.087-24.087 24.087s-24.088-10.784-24.088-24.087 10.784-24.088 24.088-24.088c13.303 0 24.087 10.784 24.087 24.088z" transform="matrix(.57034 0 0 .57034 200.86 92.657)" stroke="#030000" stroke-width="2" fill="#fff"/>
      <path id="path3785" style="color:#000000" d="m287.01 295.1c0 3.1853-2.5822 5.7674-5.7674 5.7674-3.1853 0-5.7674-2.5822-5.7674-5.7674 0-3.1853 2.5822-5.7674 5.7674-5.7674 3.1853 0 5.7674 2.5822 5.7674 5.7674z" transform="matrix(.57034 0 0 .57034 184.8 90.915)" stroke="#030000" stroke-width="2"/>
      <path id="path3785-0" style="color:#000000" d="m287.01 295.1c0 3.1853-2.5822 5.7674-5.7674 5.7674-3.1853 0-5.7674-2.5822-5.7674-5.7674 0-3.1853 2.5822-5.7674 5.7674-5.7674 3.1853 0 5.7674 2.5822 5.7674 5.7674z" transform="matrix(.57034 0 0 .57034 198.54 91.109)" stroke="#030000" stroke-width="2"/>
      <path id="path3809" d="m384.97 207.07s2.0022 6.7782 1.9046 10.253c-0.20052 7.14-5.09 20.815-5.09 20.815l3.7736 3.4018c-0.11948-0.1499-0.2336-0.29537-0.35647-0.44558 8.4781-23.468 6.3663-32.358-0.2317-34.024z" stroke="#000" stroke-width=".28517" fill-opacity=".22674"/>
      <path id="rect3838" style="color:#000000" d="m361.05 295.14c-3.6496 1.2003-7.1687 1.6972-10.444 1.4971 0.12064 2.5199 0.31511 5.0355 1.7645 7.2896 0.90679 0.0993 3.2743-0.57742 4.0993-0.64163 0.82501-0.0642-1.2524-5.6449-0.62381-5.1687 0.72114 0.54631 1.8005 5.3113 2.0342 4.7674 1.0346-0.2009 3.2439-0.39487 3.9187-0.68592 0.64134-2.3496 0.0226-4.7084-0.74857-7.058z" stroke="#030000" stroke-width=".45627" fill="#fff"/>
      <path id="path3849" d="m407.42 280.35c5.9179-9.5368 9.086-19.171 3.544-27.516 3.0024-0.79172 8.8121-0.4439 16.972 19.657 3.3037-15.675-12.296-41.2-12.296-41.2s23.442 5.5301 24.331 20.144c15.882 12.923 4.4285 50.748 4.4285 50.748s-8.2457-21.226-14.29-18.865l-5.3554 15.048-10.886-7.1757" stroke="#000" stroke-width="1.1407" fill="#46d007"/>
      <path id="path3868" d="m412.56 252.63c3.5618 3.396 6.6438 3.0841 14.008 19.268l1.659 1.4601-0.26735-0.9981c-0.009 0.0463-0.008 0.0965-0.0178 0.14259-6.9034-17.007-12.119-19.872-15.381-19.873h-0.00002z" stroke="#000" stroke-width=".28517" fill-opacity=".22745"/>
      <path id="path3870" d="m421.16 233.04c8.4104 5.9607 17.646 10.807 17.598 19.587 7.798 7.7148 9.7775 20.042 8.8156 34.203 1.6139-12.013 1.6054-27.898-7.6105-35.397-0.60996-10.023-11.815-15.77-18.803-18.393z" stroke="#000" stroke-width=".28517" fill-opacity=".22745"/>
      <path id="path3872" d="m430.73 283.02c-1.4853-0.49466-1.0701 0.0932-2.5553 1.3936 1.4162 2.8101-1.3829 6.1693-1.6687 8.9794l3.6003-10.07c0.20064-0.0784 0.40087-0.13236 0.60598-0.16041l0.0178-0.14258h0.00002z" stroke="#000" stroke-width=".28517" fill-opacity=".22745"/>
      <path id="path3893" style="color:#000000" d="m484.46 289.36-6.395 1.6231c1.3108-3.1314 0.84512-6.2678 0.24138-9.6727 2.7755 1.5857 6.4611 4.8271 6.1536 8.0496z" stroke="#030000" stroke-width="1.1407" fill="#46d007"/>
      <path id="path3898" style="color:#000000" d="m478.3 281.3c0.15204 0.85742 0.66141 1.1036 0.76977 1.9312 2.0428 1.5191 4.3871 4.2541 4.7087 6.4814l0.68835-0.35646c0.30744-3.2225-3.3912-6.4704-6.1668-8.056z" fill-opacity=".22745" stroke="#030000" stroke-width=".28517"/>
    </g>
    <path id="path3949" d="m651.67 488.44c-0.42627 2.7812-0.87302 5.5593-1.3402 8.3339" stroke="#000" stroke-width="1px" fill="none"/>
  </g>
  <metadata>
    <rdf:RDF>
      <cc:Work>
        <dc:format>image/svg+xml</dc:format>
        <dc:type rdf:resource="http://purl.org/dc/dcmitype/StillImage"/>
        <cc:license rdf:resource="http://creativecommons.org/licenses/publicdomain/"/>
        <dc:publisher>
          <cc:Agent rdf:about="http://openclipart.org/">
            <dc:title>Openclipart</dc:title>
          </cc:Agent>
        </dc:publisher>
        <dc:title>Little Pterodactil1</dc:title>
        <dc:date>2010-10-11T06:00:38</dc:date>
        <dc:description>cartoon, clip art, clipart, comic, dragon, fun, pterodactyl, </dc:description>
        <dc:source>http://openclipart.org/detail/89539/little-pterodactil1-by-tjoepoe</dc:source>
        <dc:creator>
          <cc:Agent>
            <dc:title>Tjoepoe</dc:title>
          </cc:Agent>
        </dc:creator>
        <dc:subject>
          <rdf:Bag>
            <rdf:li>cartoon</rdf:li>
            <rdf:li>clip art</rdf:li>
            <rdf:li>clipart</rdf:li>
            <rdf:li>comic</rdf:li>
            <rdf:li>dragon</rdf:li>
            <rdf:li>fun</rdf:li>
            <rdf:li>pterodactyl</rdf:li>
          </rdf:Bag>
        </dc:subject>
      </cc:Work>
      <cc:License rdf:about="http://creativecommons.org/licenses/publicdomain/">
        <cc:permits rdf:resource="http://creativecommons.org/ns#Reproduction"/>
        <cc:permits rdf:resource="http://creativecommons.org/ns#Distribution"/>
        <cc:permits rdf:resource="http://creativecommons.org/ns#DerivativeWorks"/>
      </cc:License>
    </rdf:RDF>
  </metadata>
</svg>
